<svg width="90" height="90" viewBox="0 0 90 90" fill="none" xmlns="http://www.w3.org/2000/svg">
<path fill-rule="evenodd" clip-rule="evenodd" d="M22.5 37.9688C22.5 33.3089 26.2776 29.5312 30.9375 29.5312C35.5974 29.5312 39.375 33.3089 39.375 37.9688C39.375 42.6286 35.5974 46.4062 30.9375 46.4062C26.2776 46.4062 22.5 42.6286 22.5 37.9688ZM30.9375 32.3438C27.831 32.3438 25.3125 34.8622 25.3125 37.9688C25.3125 41.0753 27.831 43.5938 30.9375 43.5938C34.044 43.5938 36.5625 41.0753 36.5625 37.9688C36.5625 34.8622 34.044 32.3438 30.9375 32.3438Z" fill="#0032AD"/>
<path fill-rule="evenodd" clip-rule="evenodd" d="M11.25 2.8125C8.92005 2.8125 7.03125 4.7013 7.03125 7.03125V59.0625H4.21875C3.44211 59.0625 2.8125 59.6921 2.8125 60.4688C2.8125 61.2454 3.44211 61.875 4.21875 61.875H18.2812V85.7812C18.2812 86.5579 18.9108 87.1875 19.6875 87.1875H42.1875C42.9642 87.1875 43.5938 86.5579 43.5938 85.7812V64.5116L50.0348 61.875H85.7812C86.5579 61.875 87.1875 61.2454 87.1875 60.4688C87.1875 59.6921 86.5579 59.0625 85.7812 59.0625H82.9688V7.03125C82.9688 4.70129 81.08 2.8125 78.75 2.8125H11.25ZM18.5948 59.0625H9.84375V7.03125C9.84375 6.25461 10.4734 5.625 11.25 5.625H78.75C79.5267 5.625 80.1562 6.25461 80.1562 7.03125V59.0625H56.3895C57.9713 57.8049 58.6545 55.6591 57.9999 53.6739C58.0717 53.5937 58.1354 53.504 58.1889 53.4053L71.5483 28.7959C71.9189 28.1133 71.6659 27.2596 70.9833 26.8892C70.3008 26.5186 69.4471 26.7715 69.0765 27.4541L56.1838 51.204C54.854 50.2566 53.082 49.9911 51.4592 50.6554L41.4114 54.7684C39.1359 51.4211 35.2948 49.2188 30.9375 49.2188C24.9143 49.2188 19.8738 53.4263 18.5948 59.0625ZM30.9375 52.0312C25.5009 52.0312 21.0938 56.4384 21.0938 61.875V84.375H40.7812V63.5677C40.7812 62.9968 41.1263 62.4825 41.6548 62.2662L54.1229 57.1625C55.2011 56.7212 55.7173 55.4895 55.2759 54.4113C54.8346 53.3332 53.6029 52.8169 52.5247 53.2582L41.3684 57.825C40.7039 58.097 39.9412 57.8247 39.5992 57.1935C37.9319 54.116 34.6771 52.0312 30.9375 52.0312Z" fill="#0032AD"/>
</svg>
