<svg width="30" height="24" viewBox="0 0 30 24" fill="none" xmlns="http://www.w3.org/2000/svg">
<path d="M24.75 21C25.125 21 25.5 21.375 25.5 21.75V23.25C25.5 23.6719 25.125 24 24.75 24H5.25C4.82812 24 4.5 23.6719 4.5 23.25V21.75C4.5 21.375 4.82812 21 5.25 21H24.75ZM27.75 6C28.9688 6 30 7.03125 30 8.25C30 9.51562 28.9688 10.5 27.75 10.5C27.6094 10.5 27.4688 10.5 27.375 10.5L24 19.5H6L2.57812 10.5C2.48438 10.5 2.34375 10.5 2.25 10.5C0.984375 10.5 0 9.51562 0 8.25C0 7.03125 0.984375 6 2.25 6C3.46875 6 4.5 7.03125 4.5 8.25C4.5 8.625 4.40625 8.90625 4.26562 9.1875L7.6875 11.25C8.39062 11.6719 9.32812 11.4375 9.75 10.6875L13.5469 3.98438C13.0781 3.60938 12.75 2.95312 12.75 2.25C12.75 1.03125 13.7344 0 15 0C16.2188 0 17.25 1.03125 17.25 2.25C17.25 2.95312 16.9219 3.60938 16.4062 3.98438L20.2031 10.6875C20.625 11.4375 21.5625 11.6719 22.3125 11.25L25.6875 9.1875C25.5469 8.90625 25.5 8.625 25.5 8.25C25.5 7.03125 26.4844 6 27.75 6Z" fill="#25FFFF"/>
</svg>
