<svg width="27" height="24" viewBox="0 0 27 24" fill="none" xmlns="http://www.w3.org/2000/svg">
<path d="M25.4062 1.54688C26.25 1.5 27 2.15625 26.9531 2.95312V18.7969C26.9531 19.5469 26.3438 20.2031 25.5469 20.25C23.25 20.3438 18.5625 20.8125 15.3281 22.4531C14.8125 22.6875 14.2031 22.3594 14.2031 21.7969V4.73438C14.2031 4.5 14.3438 4.26562 14.5781 4.125C17.7188 2.20312 22.8281 1.6875 25.4062 1.54688ZM12.375 4.125C12.6094 4.26562 12.75 4.5 12.75 4.73438V21.7969C12.75 22.3594 12.1406 22.6875 11.625 22.4531C8.39062 20.8125 3.70312 20.3438 1.40625 20.25C0.609375 20.2031 0 19.5469 0 18.7969V2.95312C0 2.15625 0.703125 1.5 1.54688 1.54688C4.125 1.6875 9.23438 2.20312 12.375 4.125Z" fill="#191654"/>
</svg>
