<svg width="25" height="25" viewBox="0 0 25 25" fill="none" xmlns="http://www.w3.org/2000/svg">
<path d="M0.796875 6.98438C0 6.60938 0 5.4375 0.796875 5.0625L11.7188 0.140625C11.8594 0.046875 12.0469 0.046875 12.2344 0.046875C12.375 0.046875 12.5625 0.046875 12.7031 0.140625L23.625 5.0625C24.4219 5.4375 24.4219 6.60938 23.625 6.98438L12.7031 11.9062C12.375 12.0469 12.0469 12.0469 11.7188 11.9062L0.796875 6.98438ZM23.625 11.1094C24.4219 11.4375 24.4219 12.6094 23.625 12.9844L12.7031 17.9062C12.375 18.0469 12.0469 18.0469 11.7188 17.9062L0.796875 12.9844C0 12.6094 0 11.4375 0.796875 11.1094L3.51562 9.84375L11.1094 13.3125C11.4375 13.4531 11.8125 13.5469 12.2344 13.5469C12.6094 13.5469 12.9844 13.4531 13.3125 13.3125L20.9062 9.84375L23.625 11.1094ZM23.625 17.1094C24.4219 17.4375 24.4219 18.6094 23.625 18.9844L12.7031 23.9062C12.375 24.0469 12.0469 24.0469 11.7188 23.9062L0.796875 18.9844C0 18.6094 0 17.4375 0.796875 17.1094L3.51562 15.8438L11.1094 19.3125C11.4375 19.4531 11.8125 19.5469 12.2344 19.5469C12.6094 19.5469 12.9844 19.4531 13.3125 19.3125L20.9062 15.8438L23.625 17.1094Z" fill="#191654"/>
</svg>
