<svg width="24" height="24" viewBox="0 0 24 24" fill="none" xmlns="http://www.w3.org/2000/svg">
<path d="M23.25 18C23.625 18 24 18.375 24 18.75V20.25C24 20.6719 23.625 21 23.25 21H1.5C0.65625 21 0 20.3438 0 19.5V3.75C0 3.375 0.328125 3 0.75 3H2.25C2.625 3 3 3.375 3 3.75V18H23.25ZM21.75 4.5C22.125 4.5 22.5 4.875 22.4531 5.25V10.8281C22.4531 11.8125 21.2812 12.3281 20.5781 11.625L19.0312 10.0781L14.5312 14.5781C13.9688 15.1875 12.9844 15.1875 12.4219 14.5781L9 11.1562L6.79688 13.3125C6.51562 13.5938 6.04688 13.5938 5.76562 13.3125L4.6875 12.2344C4.40625 11.9531 4.40625 11.4844 4.6875 11.2031L7.92188 7.96875C8.48438 7.35938 9.46875 7.35938 10.0312 7.96875L13.5 11.3906L16.9219 7.96875L15.375 6.42188C14.6719 5.71875 15.1875 4.5 16.1719 4.5H21.75Z" fill="#191654"/>
</svg>
