<svg width="25" height="25" viewBox="0 0 25 25" fill="none" xmlns="http://www.w3.org/2000/svg">
<path d="M14.25 9V10.5C14.25 10.8281 13.9688 11.0625 13.6875 11.0625H11.0625V13.6875C11.0625 14.0156 10.7812 14.25 10.5 14.25H9C8.67188 14.25 8.4375 14.0156 8.4375 13.6875V11.0625H5.8125C5.48438 11.0625 5.25 10.8281 5.25 10.5V9C5.25 8.71875 5.48438 8.4375 5.8125 8.4375H8.4375V5.8125C8.4375 5.53125 8.67188 5.25 9 5.25H10.5C10.7812 5.25 11.0625 5.53125 11.0625 5.8125V8.4375H13.6875C13.9688 8.4375 14.25 8.71875 14.25 9ZM23.6719 22.3594L22.3125 23.6719C21.8906 24.1406 21.1875 24.1406 20.7188 23.6719L16.0781 19.0312C15.8438 18.7969 15.75 18.5156 15.75 18.2344V17.4375C14.0625 18.75 12 19.5 9.75 19.5C4.35938 19.5 0 15.1406 0 9.75C0 4.40625 4.35938 0 9.75 0C15.0938 0 19.5 4.40625 19.5 9.75C19.5 12.0469 18.7031 14.1094 17.4375 15.75H18.1875C18.4688 15.75 18.75 15.8906 18.9844 16.0781L23.6719 20.7656C24.0938 21.2344 24.0938 21.9375 23.6719 22.3594ZM16.125 9.75C16.125 6.23438 13.2656 3.375 9.75 3.375C6.1875 3.375 3.375 6.23438 3.375 9.75C3.375 13.3125 6.1875 16.125 9.75 16.125C13.2656 16.125 16.125 13.3125 16.125 9.75Z" fill="#191654"/>
</svg>
