<svg width="90" height="90" viewBox="0 0 90 90" fill="none" xmlns="http://www.w3.org/2000/svg">
<g clip-path="url(#clip0_214_5)">
<mask id="mask0_214_5" style="mask-type:luminance" maskUnits="userSpaceOnUse" x="0" y="0" width="90" height="90">
<path d="M90 0H0V90H90V0Z" fill="white"/>
</mask>
<g mask="url(#mask0_214_5)">
<path fill-rule="evenodd" clip-rule="evenodd" d="M44.8241 29.707C44.4725 29.707 44.1211 29.5312 43.7695 29.5312L18.2812 17.2265C17.7538 16.8749 17.4023 16.3475 17.4023 15.8202C17.4023 15.117 17.7538 14.5897 18.457 14.2382L43.5937 2.10927C44.2967 1.58193 45.5273 1.58193 46.2304 1.93349L71.7187 14.2382C72.2461 14.5897 72.5975 14.9413 72.5975 15.6444C72.5975 16.1718 72.2461 16.8749 71.5429 17.2265L46.4062 29.1796C46.0546 29.5312 45.3515 29.707 44.8241 29.707ZM44.8241 27.2461C44.8241 27.2461 44.9999 27.246 45.1757 27.0702H45.3515L68.9062 15.6444L45.1757 4.21865C45.1757 4.21865 44.9999 4.21865 44.8241 4.21865L44.6483 4.39443L20.9179 15.8202L44.8241 27.2461Z" fill="#0032AD"/>
<path fill-rule="evenodd" clip-rule="evenodd" d="M32.6953 49.043C31.9921 49.043 31.4648 48.5157 31.4648 47.8125V22.6758C31.4648 22.3242 31.6406 21.9726 31.9921 21.6212L42.7148 15.293C43.4179 14.9414 44.1211 15.1172 44.4725 15.8204C44.8241 16.3476 44.6483 17.0508 43.9453 17.4024L33.9257 23.3789V47.8125C33.9257 48.5157 33.3983 49.043 32.6953 49.043Z" fill="#0032AD"/>
<path fill-rule="evenodd" clip-rule="evenodd" d="M45.7033 18.9843C43.418 18.9843 41.6602 17.2266 41.6602 14.9414C41.6602 12.6563 43.418 10.8984 45.7033 10.8984C47.9884 10.8984 49.7462 12.6563 49.7462 14.9414C49.7462 17.2266 47.9884 18.9843 45.7033 18.9843ZM45.7033 13.3594C44.8243 13.3594 44.1212 14.0625 44.1212 14.9414C44.1212 15.8204 44.8243 16.5234 45.7033 16.5234C46.5821 16.5234 47.2852 15.8204 47.2852 14.9414C47.2852 14.0625 46.5821 13.3594 45.7033 13.3594Z" fill="#0032AD"/>
<path fill-rule="evenodd" clip-rule="evenodd" d="M32.6953 55.1953C30.2343 55.1953 28.3008 53.2617 28.3008 50.8008C28.3008 48.5157 30.2343 46.582 32.6953 46.582C35.1562 46.582 37.0899 48.5157 37.0899 50.8008C37.0899 53.2617 35.1562 55.1953 32.6953 55.1953ZM32.6953 49.0429C31.6407 49.0429 30.7617 49.9218 30.7617 50.8008C30.7617 52.0312 31.6407 52.7343 32.6953 52.7343C33.75 52.7343 34.6288 52.0312 34.6288 50.8008C34.6288 49.9218 33.75 49.0429 32.6953 49.0429Z" fill="#0032AD"/>
<path fill-rule="evenodd" clip-rule="evenodd" d="M44.8243 41.3087C39.1993 41.3087 33.7501 40.4297 28.3009 39.0234C26.1914 38.4962 24.7852 36.7383 24.7852 34.4532V19.3359C24.7852 18.6329 25.3126 18.1055 26.0158 18.1055C26.7188 18.1055 27.2462 18.6329 27.2462 19.3359V34.4532C27.2462 35.6837 28.1251 36.3867 29.0039 36.7383C39.1993 39.5508 50.0977 39.5508 60.9962 36.7383C61.8751 36.3867 62.7539 35.6837 62.7539 34.4532V19.3359C62.7539 18.6329 63.2813 18.1055 63.9844 18.1055C64.6876 18.1055 65.215 18.6329 65.215 19.3359V34.4532C65.215 36.7383 63.8087 38.4962 61.6993 39.0234C55.8985 40.4297 50.2735 41.3087 44.8243 41.3087Z" fill="#0032AD"/>
<path fill-rule="evenodd" clip-rule="evenodd" d="M71.3671 80.8594C70.6641 80.8594 70.1367 80.3321 70.1367 79.6289V77.3438C70.3125 74.3555 73.125 72.9492 74.0038 72.5976C78.2226 69.4337 78.9258 65.918 79.8046 61.8751C80.1562 60.293 80.5078 58.5352 81.0351 56.7775L87.3633 37.793C87.8905 36.0352 87.0117 34.2775 85.2538 33.5743C83.6718 33.2227 81.7383 33.7501 81.2109 35.6837V35.8594L76.6405 48.8672C78.0468 50.9767 78.2226 53.6134 76.8163 55.5469V55.7227L68.3788 66.6212C67.8516 67.1485 67.1484 67.1485 66.6211 66.7969C66.0937 66.4454 65.9179 65.5664 66.2695 65.0392L74.707 54.1406C75.9375 52.5587 75.0586 50.8009 74.0038 49.7462C72.5976 48.5156 70.8399 48.8672 69.6094 50.2735L58.8867 64.5118H58.7109C56.6016 67.1485 56.0742 69.4337 56.6016 72.2462V72.4219V79.6289C56.6016 80.3321 56.0742 80.8594 55.3711 80.8594C54.6679 80.8594 54.1407 80.3321 54.1407 79.6289V72.5976C53.4375 69.0821 54.3163 66.0938 56.7774 62.9297L67.6758 48.6914H67.8516C68.7304 47.461 70.1367 46.7579 71.5429 46.5821C72.5976 46.4063 73.6524 46.5821 74.5312 47.1094L78.75 34.9805C79.6288 32.168 82.6171 30.586 85.7812 31.2892H85.957C89.1211 32.3438 90.703 35.5079 89.8242 38.6719L83.4961 57.6563C82.7929 59.2384 82.4413 60.8204 82.0899 62.4025C81.2109 66.6212 80.332 71.0156 75.2344 74.7071C75.2344 74.8829 75.0586 74.8829 74.8828 74.8829C74.8828 74.8829 72.7734 75.7617 72.5976 77.5196V79.6289C72.5976 80.3321 72.0703 80.8594 71.3671 80.8594Z" fill="#0032AD"/>
<path fill-rule="evenodd" clip-rule="evenodd" d="M73.8283 88.2419H52.7344C52.0313 88.2419 51.5039 87.7147 51.5039 87.0115V79.6286C51.5039 78.9256 52.0313 78.3982 52.7344 78.3982H73.8283C74.5313 78.3982 75.0587 78.9256 75.0587 79.6286V87.0115C75.0587 87.7147 74.5313 88.2419 73.8283 88.2419ZM53.965 85.781H72.5977V80.8591H53.965V85.781Z" fill="#0032AD"/>
<path fill-rule="evenodd" clip-rule="evenodd" d="M34.6293 80.8592C33.9262 80.8592 33.3988 80.3318 33.3988 79.6286V72.4217V72.2459C33.9263 69.4334 33.3988 67.1482 31.1138 64.5115L20.2153 50.2732C19.6879 49.5701 18.9849 49.0427 18.1059 49.0427C17.4028 48.8669 16.5238 49.2185 15.9966 49.7459C14.9419 50.8006 14.0629 52.5584 15.2934 54.1403L23.5551 65.0389C24.0825 65.5661 23.9067 66.4451 23.3793 66.7967C22.852 67.1482 22.1488 67.1482 21.6216 66.6209L13.184 55.7224C13.184 55.5466 13.184 55.5466 13.184 55.5466C11.7778 53.6131 11.9536 50.9764 13.3598 48.8669L8.78952 35.8591V35.6834C8.26216 33.7498 6.32857 33.2224 4.74654 33.574C2.98873 34.2772 2.10982 36.0349 2.63716 37.7927L8.96529 56.7772C9.49264 58.5349 9.8442 60.2927 10.1958 61.8748C11.0747 65.9177 11.7778 69.4334 15.9966 72.5974C16.8754 72.949 19.6879 74.3552 19.8637 77.3435V79.6286C19.8637 80.3318 19.3363 80.8592 18.6333 80.8592C17.9301 80.8592 17.4028 80.3318 17.4028 79.6286V77.5193C17.227 75.7615 15.1176 74.8826 15.1176 74.8826C14.9419 74.8826 14.9419 74.7068 14.7661 74.7068C9.66841 71.0155 8.78952 66.6209 7.91061 62.4022C7.55904 60.8201 7.20748 59.2381 6.50436 57.656L0.176229 38.4959C-0.702677 35.3318 0.879354 32.3435 4.04341 31.2889C4.04341 31.2889 4.04341 31.1131 4.2192 31.1131C7.38327 30.4099 10.3715 32.1677 11.2504 34.9802L15.4692 47.1092C16.348 46.5818 17.4028 46.406 18.4575 46.5818C19.8637 46.7576 21.27 47.4607 22.1488 48.6911H22.3246L33.223 62.9294C35.6841 66.0935 36.563 69.0818 35.8599 72.5974V79.6286C35.8599 80.3318 35.3325 80.8592 34.6293 80.8592Z" fill="#0032AD"/>
<path fill-rule="evenodd" clip-rule="evenodd" d="M37.2657 88.2419H16.1718C15.4687 88.2419 14.9414 87.7147 14.9414 87.0115V79.6286C14.9414 78.9256 15.4687 78.3982 16.1718 78.3982H37.2657C37.9687 78.3982 38.4961 78.9256 38.4961 79.6286V87.0115C38.4961 87.7147 37.9687 88.2419 37.2657 88.2419ZM17.4024 85.781H36.0351V80.8591H17.4024V85.781Z" fill="#0032AD"/>
</g>
</g>
<defs>
<clipPath id="clip0_214_5">
<rect width="90" height="90" fill="white"/>
</clipPath>
</defs>
</svg>
