<svg width="90" height="90" viewBox="0 0 90 90" fill="none" xmlns="http://www.w3.org/2000/svg">
<g clip-path="url(#clip0_64_6712)">
<mask id="mask0_64_6712" style="mask-type:luminance" maskUnits="userSpaceOnUse" x="0" y="0" width="90" height="90">
<path d="M90 0H0V90H90V0Z" fill="white"/>
</mask>
<g mask="url(#mask0_64_6712)">
<path fill-rule="evenodd" clip-rule="evenodd" d="M44.8251 29.707C44.4735 29.707 44.1221 29.5312 43.7705 29.5312L18.2822 17.2265C17.7548 16.8749 17.4033 16.3475 17.4033 15.8202C17.4033 15.117 17.7548 14.5897 18.458 14.2382L43.5947 2.10927C44.2977 1.58193 45.5283 1.58193 46.2314 1.93349L71.7197 14.2382C72.2471 14.5897 72.5985 14.9413 72.5985 15.6444C72.5985 16.1718 72.2471 16.8749 71.5439 17.2265L46.4072 29.1796C46.0556 29.5312 45.3525 29.707 44.8251 29.707ZM44.8251 27.2461C44.8251 27.2461 45.0009 27.246 45.1767 27.0702H45.3525L68.9072 15.6444L45.1767 4.21865C45.1767 4.21865 45.0009 4.21865 44.8251 4.21865L44.6493 4.39443L20.9189 15.8202L44.8251 27.2461Z" fill="#0032AD"/>
<path fill-rule="evenodd" clip-rule="evenodd" d="M32.6963 49.043C31.9931 49.043 31.4658 48.5157 31.4658 47.8125V22.6758C31.4658 22.3242 31.6416 21.9726 31.9931 21.6212L42.7158 15.293C43.4189 14.9414 44.1221 15.1172 44.4735 15.8204C44.8251 16.3476 44.6493 17.0508 43.9463 17.4024L33.9267 23.3789V47.8125C33.9267 48.5157 33.3993 49.043 32.6963 49.043Z" fill="#0032AD"/>
<path fill-rule="evenodd" clip-rule="evenodd" d="M45.7033 18.9843C43.418 18.9843 41.6602 17.2266 41.6602 14.9414C41.6602 12.6563 43.418 10.8984 45.7033 10.8984C47.9884 10.8984 49.7462 12.6563 49.7462 14.9414C49.7462 17.2266 47.9884 18.9843 45.7033 18.9843ZM45.7033 13.3594C44.8243 13.3594 44.1212 14.0625 44.1212 14.9414C44.1212 15.8204 44.8243 16.5234 45.7033 16.5234C46.5821 16.5234 47.2852 15.8204 47.2852 14.9414C47.2852 14.0625 46.5821 13.3594 45.7033 13.3594Z" fill="#0032AD"/>
<path fill-rule="evenodd" clip-rule="evenodd" d="M32.6953 55.1953C30.2343 55.1953 28.3008 53.2617 28.3008 50.8008C28.3008 48.5157 30.2343 46.582 32.6953 46.582C35.1562 46.582 37.0899 48.5157 37.0899 50.8008C37.0899 53.2617 35.1562 55.1953 32.6953 55.1953ZM32.6953 49.0429C31.6407 49.0429 30.7617 49.9218 30.7617 50.8008C30.7617 52.0312 31.6407 52.7343 32.6953 52.7343C33.75 52.7343 34.6288 52.0312 34.6288 50.8008C34.6288 49.9218 33.75 49.0429 32.6953 49.0429Z" fill="#0032AD"/>
<path fill-rule="evenodd" clip-rule="evenodd" d="M44.8243 41.3087C39.1993 41.3087 33.7501 40.4297 28.3009 39.0234C26.1914 38.4962 24.7852 36.7383 24.7852 34.4532V19.3359C24.7852 18.6329 25.3126 18.1055 26.0158 18.1055C26.7188 18.1055 27.2462 18.6329 27.2462 19.3359V34.4532C27.2462 35.6837 28.1251 36.3867 29.0039 36.7383C39.1993 39.5508 50.0977 39.5508 60.9962 36.7383C61.8751 36.3867 62.7539 35.6837 62.7539 34.4532V19.3359C62.7539 18.6329 63.2813 18.1055 63.9844 18.1055C64.6876 18.1055 65.215 18.6329 65.215 19.3359V34.4532C65.215 36.7383 63.8087 38.4962 61.6993 39.0234C55.8985 40.4297 50.2735 41.3087 44.8243 41.3087Z" fill="#0032AD"/>
<path fill-rule="evenodd" clip-rule="evenodd" d="M71.3681 80.8594C70.665 80.8594 70.1377 80.3321 70.1377 79.6289V77.3438C70.3135 74.3555 73.1259 72.9493 74.0048 72.5977C78.2235 69.4337 78.9267 65.918 79.8056 61.8751C80.1572 60.293 80.5088 58.5352 81.036 56.7775L87.3642 37.793C87.8915 36.0352 87.0126 34.2775 85.2548 33.5743C83.6727 33.2227 81.7392 33.7501 81.2118 35.6837V35.8594L76.6415 48.8672C78.0478 50.9767 78.2235 53.6134 76.8173 55.5469V55.7227L68.3798 66.6212C67.8525 67.1485 67.1493 67.1485 66.6221 66.7969C66.0947 66.4454 65.9189 65.5664 66.2705 65.0392L74.708 54.1406C75.9384 52.5587 75.0596 50.8009 74.0048 49.7462C72.5985 48.5156 70.8408 48.8672 69.6104 50.2735L58.8876 64.5118H58.7118C56.6025 67.1485 56.0752 69.4337 56.6026 72.2462V72.4219V79.6289C56.6026 80.3321 56.0751 80.8594 55.3721 80.8594C54.6689 80.8594 54.1416 80.3321 54.1416 79.6289V72.5977C53.4384 69.0821 54.3173 66.0938 56.7783 62.9297L67.6767 48.6914H67.8526C68.7314 47.461 70.1377 46.7579 71.5439 46.5821C72.5986 46.4063 73.6533 46.5821 74.5322 47.1094L78.7509 34.9805C79.6298 32.168 82.6181 30.586 85.7822 31.2892H85.958C89.1221 32.3438 90.704 35.5079 89.8252 38.6719L83.4971 57.6563C82.7939 59.2384 82.4423 60.8204 82.0909 62.4025C81.2119 66.6212 80.333 71.0156 75.2354 74.7071C75.2354 74.8829 75.0596 74.8829 74.8838 74.8829C74.8838 74.8829 72.7743 75.7617 72.5985 77.5196V79.6289C72.5985 80.3321 72.0713 80.8594 71.3681 80.8594Z" fill="#0032AD"/>
<path fill-rule="evenodd" clip-rule="evenodd" d="M73.8283 88.2419H52.7344C52.0313 88.2419 51.5039 87.7147 51.5039 87.0115V79.6286C51.5039 78.9256 52.0313 78.3982 52.7344 78.3982H73.8283C74.5313 78.3982 75.0587 78.9256 75.0587 79.6286V87.0115C75.0587 87.7147 74.5313 88.2419 73.8283 88.2419ZM53.965 85.781H72.5977V80.8591H53.965V85.781Z" fill="#0032AD"/>
<path fill-rule="evenodd" clip-rule="evenodd" d="M34.6293 80.8595C33.9262 80.8595 33.3988 80.3321 33.3988 79.6289V72.422V72.2462C33.9262 69.4337 33.3989 67.1484 31.1138 64.5117L20.2153 50.2734C19.6879 49.5704 18.9849 49.043 18.1059 49.043C17.4028 48.8672 16.5238 49.2188 15.9966 49.7462C14.9419 50.8008 14.0629 52.5587 15.2934 54.1406L23.5551 65.0391C24.0825 65.5664 23.9067 66.4454 23.3793 66.797C22.852 67.1484 22.1488 67.1484 21.6216 66.6212L13.184 55.7226C13.184 55.5468 13.184 55.5468 13.184 55.5468C11.7778 53.6133 11.9536 50.9766 13.3598 48.8672L8.78952 35.8593V35.6837C8.26216 33.75 6.32857 33.2226 4.74654 33.5742C2.98873 34.2774 2.10982 36.0351 2.63716 37.793L8.96529 56.7774C9.49264 58.5351 9.8442 60.293 10.1958 61.875C11.0747 65.918 11.7778 69.4337 15.9966 72.5976C16.8754 72.9492 19.6879 74.3555 19.8637 77.3438V79.6289C19.8637 80.3321 19.3363 80.8595 18.6333 80.8595C17.9301 80.8595 17.4028 80.3321 17.4028 79.6289V77.5196C17.227 75.7617 15.1176 74.8829 15.1176 74.8829C14.9419 74.8829 14.9419 74.7071 14.7661 74.7071C9.66841 71.0157 8.78952 66.6212 7.91061 62.4024C7.55904 60.8204 7.20748 59.2383 6.50436 57.6563L0.176229 38.4962C-0.702677 35.3321 0.879354 32.3438 4.04341 31.2891C4.04341 31.2891 4.04341 31.1133 4.2192 31.1133C7.38327 30.4101 10.3715 32.168 11.2504 34.9805L15.4692 47.1095C16.348 46.5821 17.4028 46.4063 18.4575 46.5821C19.8637 46.7579 21.27 47.4609 22.1488 48.6914H22.3246L33.223 62.9297C35.6841 66.0938 36.5629 69.0821 35.8599 72.5976V79.6289C35.8599 80.3321 35.3325 80.8595 34.6293 80.8595Z" fill="#0032AD"/>
<path fill-rule="evenodd" clip-rule="evenodd" d="M37.2657 88.2419H16.1718C15.4687 88.2419 14.9414 87.7147 14.9414 87.0115V79.6286C14.9414 78.9256 15.4687 78.3982 16.1718 78.3982H37.2657C37.9687 78.3982 38.4961 78.9256 38.4961 79.6286V87.0115C38.4961 87.7147 37.9687 88.2419 37.2657 88.2419ZM17.4024 85.781H36.0351V80.8591H17.4024V85.781Z" fill="#0032AD"/>
</g>
</g>
<defs>
<clipPath id="clip0_64_6712">
<rect width="90" height="90" fill="white"/>
</clipPath>
</defs>
</svg>
