<svg width="90" height="90" viewBox="0 0 90 90" fill="none" xmlns="http://www.w3.org/2000/svg">
<path d="M32.4391 65.7605C31.9066 65.2631 31.0725 65.2912 30.5751 65.8226C30.5676 65.8307 29.8042 66.6433 28.4362 67.8632C27.8925 68.3479 27.8449 69.1814 28.3297 69.725C28.7995 70.2521 29.65 70.3144 30.1914 69.8317C31.6477 68.533 32.4667 67.6607 32.5009 67.6244C32.9985 67.0928 32.9709 66.2582 32.4391 65.7605Z" fill="#0032AD"/>
<path d="M16.4722 77.3476C16.1973 76.6731 15.4276 76.3497 14.7532 76.6246C13.0332 77.3262 11.3128 77.8735 9.63938 78.252C8.92904 78.4125 8.48344 79.1185 8.6441 79.8289C8.78261 80.4414 9.32648 80.857 9.92906 80.857C10.0254 80.857 10.1231 80.8464 10.221 80.8242C12.0355 80.4141 13.8952 79.8226 15.7491 79.0665C16.4233 78.7914 16.747 78.0219 16.4722 77.3476Z" fill="#0032AD"/>
<path d="M26.0281 71.5768C25.6006 70.9873 24.7762 70.8559 24.1866 71.2835C22.6831 72.3742 21.145 73.3699 19.6153 74.2432C18.9828 74.6042 18.7627 75.4097 19.1241 76.0421C19.4802 76.666 20.2998 76.8895 20.923 76.5337C22.5354 75.6133 24.1543 74.5651 25.7352 73.4186C26.3247 72.991 26.4561 72.1664 26.0281 71.5768Z" fill="#0032AD"/>
<path d="M4.36663 78.9074C3.38928 78.9255 2.41194 78.882 1.46079 78.779C0.736919 78.7008 0.0863522 79.2237 0.00777808 79.9478C-0.0706204 80.6717 0.452504 81.3222 1.17655 81.4007C2.082 81.4988 3.00801 81.5483 3.93579 81.5483C4.80045 81.5483 5.72875 81.2519 5.70942 80.2013C5.69589 79.4732 5.09331 78.8951 4.36663 78.9074Z" fill="#0032AD"/>
<path d="M89.6548 8.87883C89.3545 8.56558 88.9048 8.39175 88.4718 8.47014L88.4661 8.47084L14.8537 20.8564C14.356 20.9401 13.95 21.3003 13.8076 21.7843C13.6652 22.2682 13.8113 22.7913 14.1841 23.131L24.7437 32.7598L32.3938 62.0206C32.5147 62.4829 32.887 62.8581 33.3565 62.9647C33.7035 63.0435 34.0597 62.9926 34.3633 62.8048C34.3801 62.7943 34.3983 62.7865 34.4148 62.7751L47.6524 53.7082L53.6584 59.7139C53.9068 59.9623 54.2427 60.1 54.591 60.1C54.6298 60.1 54.6688 60.0984 54.7078 60.0948C55.0966 60.0601 55.4505 59.8551 55.6734 59.5342L89.7672 10.5241C89.7693 10.521 89.7708 10.5175 89.7729 10.5143C89.9434 10.2631 90.0192 9.9627 89.9958 9.66475C89.9731 9.37576 89.8567 9.08941 89.6548 8.87883ZM17.9625 23.0074L74.0271 13.5745L26.2248 30.5415L17.9625 23.0074ZM33.5875 56.1603L27.5026 32.886L78.4077 14.8181L37.4112 41.2066C37.1281 41.3887 36.9157 41.6892 36.8397 42.0198L33.5875 56.1603ZM35.7118 58.6897L38.2564 47.6257L38.8762 44.9314L45.6054 51.6603L45.7555 51.8107L35.7118 58.6897ZM54.4084 56.7345L40.2136 42.5394L83.8006 14.4833L54.4084 56.7345Z" fill="#0032AD"/>
</svg>
