<svg width="237" height="420" viewBox="0 0 237 420" fill="none" xmlns="http://www.w3.org/2000/svg">
<path d="M18.4396 0H106.95C111.84 0 116.53 1.94274 119.989 5.40084C123.447 8.85894 125.389 13.5491 125.389 18.4396V27.6594C125.389 32.5499 127.332 37.2401 130.79 40.6982C134.248 44.1563 138.938 46.099 143.829 46.099H217.587C222.478 46.099 227.168 48.0418 230.626 51.4999C234.084 54.958 236.027 59.6482 236.027 64.5387V401.062C236.027 405.952 234.084 410.642 230.626 414.1C227.168 417.558 222.478 419.501 217.587 419.501H18.4396C13.5491 419.501 8.85894 417.558 5.40084 414.1C1.94274 410.642 0 405.952 0 401.062L0 18.4396C0 13.5491 1.94274 8.85894 5.40084 5.40084C8.85894 1.94274 13.5491 0 18.4396 0Z" fill="#0032AD"/>
</svg>
