<svg width="396" height="415" viewBox="0 0 396 415" fill="none" xmlns="http://www.w3.org/2000/svg">
<path d="M20 0H376C381.304 0 386.391 2.10714 390.142 5.85786C393.893 9.60859 396 14.6957 396 20V325C396 330.304 393.893 335.391 390.142 339.142C386.391 342.893 381.304 345 376 345H236C230.696 345 225.609 347.107 221.858 350.858C218.107 354.609 216 359.696 216 365V395C216 400.304 213.893 405.391 210.142 409.142C206.391 412.893 201.304 415 196 415H20C14.6957 415 9.60859 412.893 5.85786 409.142C2.10714 405.391 0 400.304 0 395L0 20C0 14.6957 2.10714 9.60859 5.85786 5.85786C9.60859 2.10714 14.6957 0 20 0Z" fill="white"/>
</svg>
