<svg width="215" height="382" viewBox="0 0 215 382" fill="none" xmlns="http://www.w3.org/2000/svg">
<path d="M16.7633 0H97.227C101.673 0 105.937 1.76613 109.08 4.90985C112.224 8.05358 113.99 12.3174 113.99 16.7633V25.1449C113.99 29.5908 115.756 33.8546 118.9 36.9984C122.044 40.1421 126.308 41.9082 130.754 41.9082H197.807C202.253 41.9082 206.516 43.6743 209.66 46.8181C212.804 49.9618 214.57 54.2256 214.57 58.6715V364.601C214.57 369.047 212.804 373.311 209.66 376.455C206.516 379.599 202.253 381.365 197.807 381.365H16.7633C12.3174 381.365 8.05358 379.599 4.90985 376.455C1.76613 373.311 0 369.047 0 364.601L0 16.7633C0 12.3174 1.76613 8.05358 4.90985 4.90985C8.05358 1.76613 12.3174 0 16.7633 0Z" fill="#F4F4F4"/>
</svg>
